<?xml version="1.0" standalone="no"?>
<!DOCTYPE svg PUBLIC "-//W3C//DTD SVG 20010904//EN"
 "http://www.w3.org/TR/2001/REC-SVG-20010904/DTD/svg10.dtd">
<svg version="1.0" xmlns="http://www.w3.org/2000/svg"
 width="1080.000000pt" height="1080.000000pt" viewBox="0 0 1080.000000 1080.000000"
 preserveAspectRatio="xMidYMid meet">
<metadata>
Created by potrace 1.11, written by Peter Selinger 2001-2013
</metadata>
<g transform="translate(0.000000,1080.000000) scale(0.100000,-0.100000)"
fill="#000000" stroke="none">
<path d="M0 5400 l0 -5400 5400 0 5400 0 0 5400 0 5400 -5400 0 -5400 0 0
-5400z m4240 2720 c174 -26 340 -65 340 -78 0 -4 -13 -13 -30 -20 -44 -20
-118 -96 -140 -145 -25 -54 -25 -84 0 -97 17 -9 25 -6 54 24 64 69 161 93 232
60 65 -31 80 -83 45 -159 -35 -76 -64 -102 -128 -110 -198 -24 -427 -86 -617
-167 l-118 -50 -64 15 c-59 15 -143 61 -160 88 -3 6 9 26 27 45 32 33 33 34
53 15 72 -65 186 -61 256 9 95 95 62 252 -62 304 -139 58 -278 -55 -357 -290
-36 -108 -59 -230 -62 -342 l-3 -83 -58 -50 c-32 -28 -62 -48 -68 -44 -9 5
-49 129 -64 197 -3 14 -10 68 -16 120 -38 375 147 673 473 758 99 26 301 26
467 0z m-835 -21 c-96 -69 -192 -253 -219 -420 -6 -35 -10 -37 -74 -58 -191
-62 -390 -251 -507 -481 l-28 -55 -19 74 c-10 41 -29 93 -42 115 -38 66 -115
134 -195 174 -67 33 -81 36 -160 37 -47 0 -102 -3 -121 -7 l-35 -7 40 35 c55
49 172 137 233 175 94 58 248 50 315 -18 36 -36 50 -66 62 -135 7 -47 22 -56
47 -31 29 29 37 161 14 231 -18 52 -81 122 -111 122 -99 0 306 161 550 219
169 40 214 49 250 50 l30 1 -30 -21z m1693 -254 c59 -30 148 -80 197 -111 103
-64 318 -224 312 -231 -3 -2 -46 8 -97 22 -132 37 -258 61 -390 75 -63 7 -116
13 -118 15 -2 1 2 24 9 49 14 56 6 154 -16 196 -16 31 -18 40 -9 40 3 0 54
-25 112 -55z m-1203 -85 c15 -6 32 -24 41 -45 42 -102 -103 -169 -155 -72 -23
43 2 102 49 120 23 8 36 8 65 -3z m-710 -372 c5 -61 3 -88 -4 -88 -19 0 -91
-71 -117 -115 -64 -110 -93 -278 -74 -428 7 -50 16 -102 21 -115 8 -20 0 -39
-40 -105 -139 -233 -233 -473 -286 -737 -21 -109 -23 -113 -35 -85 -31 79 -80
344 -80 435 0 45 0 46 77 100 142 101 207 236 207 425 -1 76 -5 110 -19 140
l-19 40 -3 -30 c-14 -112 -71 -231 -154 -320 -74 -78 -92 -83 -83 -22 38 282
116 509 240 704 56 89 207 232 284 270 36 17 68 29 71 25 4 -4 10 -46 14 -94z
m-936 -118 c130 -66 167 -237 77 -354 -61 -81 -192 -109 -284 -62 -58 29 -85
58 -111 116 -73 160 59 343 233 324 27 -3 65 -13 85 -24z m-520 -102 c-27 -90
-7 -232 46 -323 33 -58 126 -142 187 -170 153 -70 344 -41 467 70 22 21 41 36
41 34 0 -2 -9 -49 -20 -104 -11 -55 -23 -163 -26 -240 -3 -77 -8 -146 -10
-154 -3 -8 -25 6 -63 42 -123 113 -255 167 -431 174 -139 6 -215 -9 -327 -66
-143 -71 -267 -185 -373 -342 -43 -63 -120 -214 -120 -236 0 -7 -4 -13 -10
-13 -12 0 -7 29 32 185 78 315 209 617 379 873 77 115 219 302 231 302 3 0 2
-15 -3 -32z m1518 -50 c11 -35 29 -84 39 -110 l18 -47 -55 -58 c-30 -32 -70
-77 -89 -101 -21 -26 -37 -39 -43 -33 -18 18 -21 182 -3 248 21 85 71 161 106
163 3 0 15 -28 27 -62z m1027 -63 c0 -22 -4 -102 -9 -177 -9 -161 -7 -165 76
-122 196 99 358 93 434 -14 28 -40 30 -50 30 -125 -1 -95 -24 -156 -81 -210
-19 -17 -34 -35 -34 -38 0 -4 25 -17 55 -28 90 -34 129 -57 168 -100 76 -84
75 -193 -3 -290 -70 -89 -245 -183 -400 -216 -91 -19 -121 -19 -252 2 l-106
17 -62 -28 c-34 -15 -63 -26 -65 -24 -3 2 15 40 38 84 l42 79 3 229 c4 240
-12 649 -26 701 -13 46 -75 76 -157 76 -49 0 -65 4 -65 14 0 8 12 17 28 20 94
21 232 90 308 156 58 50 79 48 78 -6z m1056 10 c10 -12 11 -56 6 -183 -12
-327 -19 -839 -12 -895 l7 -57 92 -46 c77 -38 105 -46 168 -51 79 -6 159 7
212 34 16 8 36 12 45 8 24 -9 -51 -80 -123 -116 -81 -39 -153 -51 -240 -39
-250 34 -270 35 -335 17 -35 -10 -65 -15 -68 -13 -3 3 13 33 36 66 54 81 56
107 48 480 -8 342 -19 483 -41 517 -26 39 -65 58 -122 58 -29 0 -58 6 -64 12
-7 7 -11 14 -8 15 2 2 42 22 89 45 47 23 128 69 180 102 52 33 100 61 106 61
6 0 17 -7 24 -15z m1657 -740 l6 -468 29 -33 c16 -18 49 -40 74 -50 31 -12 44
-22 42 -33 -3 -13 -24 -16 -133 -19 -72 -2 -144 0 -162 3 -29 5 -32 9 -35 49
l-3 43 -73 -29 c-134 -53 -225 -72 -362 -72 -106 -1 -135 3 -192 22 -111 39
-191 108 -237 207 -34 72 -42 113 -42 213 1 141 53 277 149 382 28 32 52 60
52 63 0 3 -48 5 -108 6 -75 1 -120 -3 -151 -14 -39 -13 -47 -14 -59 -1 -12 12
-4 21 59 66 122 85 131 89 223 77 65 -8 99 -7 179 8 75 13 102 14 111 5 8 -9
1 -19 -29 -43 -155 -121 -225 -267 -225 -474 0 -69 5 -106 21 -147 41 -110
153 -199 287 -227 111 -23 276 8 374 70 l46 29 7 87 c4 47 5 150 3 228 -6 159
-28 239 -75 277 -26 21 -80 26 -118 11 -11 -5 -26 -6 -32 -4 -25 10 -12 28 38
56 28 15 110 66 182 113 72 46 134 81 139 76 4 -4 11 -219 15 -477z m1201 469
c38 -8 40 -17 11 -47 -34 -35 -78 -136 -96 -220 -15 -69 -19 -78 -37 -75 -19
3 -21 9 -18 58 3 45 -1 61 -18 83 -31 39 -87 65 -172 78 -147 23 -275 -5 -359
-79 -41 -36 -92 -135 -108 -210 -21 -98 -29 -92 123 -92 232 0 537 19 583 37
23 8 50 13 59 9 16 -6 15 -8 -3 -29 -31 -35 -50 -70 -58 -105 -3 -18 -13 -39
-22 -47 -14 -14 -17 -13 -38 9 -45 49 -223 76 -503 76 l-155 0 6 -41 c16 -119
133 -261 270 -329 124 -61 189 -73 337 -67 122 5 162 14 325 71 36 13 -57 -64
-120 -99 -354 -198 -803 -101 -949 205 -46 94 -59 163 -54 274 3 76 9 102 35
159 89 189 340 338 643 382 92 14 249 13 318 -1z m-6140 -459 c126 -30 246
-112 312 -215 151 -235 59 -571 -202 -745 l-57 -37 -28 32 c-56 67 -56 66 -23
90 73 52 128 181 115 274 -14 107 -74 193 -170 244 -43 23 -62 27 -135 27
-100 0 -159 -23 -221 -87 -62 -64 -83 -120 -84 -218 0 -73 4 -94 29 -148 38
-83 121 -159 229 -212 77 -37 224 -80 275 -80 12 0 22 -4 22 -9 0 -15 -145
-24 -265 -18 -199 11 -375 56 -526 133 -126 65 -124 62 -124 213 1 139 12 192
70 317 48 105 104 183 191 262 170 157 393 224 592 177z m-117 -528 c21 -14
39 -37 47 -62 42 -128 -113 -228 -208 -133 -108 107 35 280 161 195z m664
-300 c21 -45 41 -85 43 -89 7 -14 -272 -127 -284 -115 -4 3 20 35 52 70 33 36
77 99 99 141 22 42 42 76 45 75 3 0 23 -37 45 -82z m1752 -55 c17 -11 44 -77
103 -257 88 -270 127 -359 205 -464 l47 -64 19 24 c28 35 132 241 169 334 41
101 72 214 65 236 -4 12 -18 19 -42 21 -20 2 -38 8 -40 14 -4 11 193 113 271
140 32 12 41 12 48 2 16 -27 28 -120 43 -338 29 -410 81 -563 201 -586 19 -3
34 -10 32 -14 -4 -11 -119 -95 -157 -114 -28 -15 -34 -15 -60 -1 -88 45 -165
240 -205 516 -9 59 -16 123 -16 143 0 20 -3 36 -7 36 -5 0 -30 -35 -58 -78
-157 -246 -257 -437 -284 -544 -17 -68 -42 -101 -61 -82 -10 11 -293 518 -317
569 -18 37 -33 46 -33 19 0 -33 -70 -224 -135 -370 -74 -166 -146 -304 -212
-408 -43 -66 -45 -68 -64 -50 -27 24 -24 38 20 109 21 34 67 116 100 183 129
257 198 475 208 653 8 137 1 167 -45 186 -24 10 -51 13 -79 9 -67 -9 -54 17
25 47 37 15 103 51 147 81 83 57 92 61 112 48z m4602 -56 c59 -135 324 -461
561 -691 74 -71 84 -78 91 -60 11 30 10 360 -1 434 -11 67 -38 128 -65 151
-18 15 -67 19 -107 7 -23 -6 -28 -4 -28 10 0 19 49 52 218 150 51 29 97 51
102 48 16 -10 11 -191 -10 -353 -24 -184 -40 -447 -40 -673 0 -202 -5 -212
-73 -149 -25 22 -98 113 -163 202 -345 469 -426 567 -498 605 -24 13 -25 12
-32 -24 -4 -21 -8 -117 -8 -213 -1 -195 6 -238 61 -368 19 -46 33 -86 30 -89
-4 -3 -26 0 -51 6 -64 16 -105 14 -171 -9 -32 -11 -69 -20 -82 -20 -33 0 -30
32 7 64 54 45 62 80 73 320 17 389 -14 475 -176 486 -114 8 -102 23 96 118
168 81 224 103 239 95 4 -2 16 -23 27 -47z m1061 33 c0 -5 -9 -9 -20 -9 -23 0
-22 2 -25 -65 -4 -68 -3 -65 -20 -65 -10 0 -15 16 -17 63 -2 50 -6 62 -20 62
-22 0 -35 14 -21 23 16 10 123 2 123 -9z m-3528 -20 c205 -57 352 -199 389
-377 15 -75 6 -204 -20 -272 -76 -199 -285 -357 -544 -411 -315 -65 -597 51
-718 297 -37 73 -42 93 -47 172 -8 142 22 234 111 343 110 135 315 239 529
269 85 11 215 2 300 -21z m1532 -1 c147 -40 270 -131 339 -248 62 -106 74
-280 27 -402 -89 -236 -366 -408 -680 -425 -182 -10 -345 46 -466 159 -116
109 -171 243 -161 393 6 102 33 172 99 259 63 83 143 145 263 201 198 93 394
115 579 63z m2082 -19 l18 -50 17 48 c13 40 20 49 42 51 27 3 27 3 27 -62 0
-36 0 -69 0 -73 0 -5 -6 -8 -12 -8 -8 0 -15 20 -18 55 l-5 55 -18 -57 c-24
-77 -50 -80 -68 -8 -16 64 -25 59 -28 -15 -1 -24 -6 -35 -16 -35 -17 0 -19 28
-9 104 6 39 10 46 29 46 18 0 27 -10 41 -51z m-7491 -151 c-389 -407 -645
-597 -925 -687 -157 -50 -450 -102 -450 -79 0 15 122 214 175 285 153 203 301
295 551 343 291 56 486 110 627 174 82 38 86 31 22 -36z m-1502 -8 c86 -58
323 -140 403 -140 13 0 24 -2 24 -4 0 -2 -26 -30 -57 -63 -51 -52 -191 -246
-278 -385 -17 -27 -33 -48 -36 -48 -4 0 -19 49 -34 109 l-27 109 21 39 c11 22
36 62 56 88 42 55 41 57 -46 74 -32 7 -60 15 -63 19 -7 12 -20 232 -13 232 3
0 26 -13 50 -30z m1509 -205 c-89 -82 -141 -160 -180 -267 -136 -378 6 -733
381 -949 196 -113 279 -181 352 -284 117 -167 135 -320 59 -481 -59 -125 -178
-211 -336 -242 -74 -14 -79 -14 -130 7 -85 34 -147 88 -187 161 l-36 65 1 130
c0 91 5 142 16 170 l15 40 61 3 c34 2 62 -1 62 -6 0 -5 -7 -31 -15 -58 -23
-75 -20 -169 7 -212 42 -68 154 -92 229 -50 95 53 138 205 86 304 -21 41 -85
102 -129 125 -89 46 -285 45 -473 -1 -104 -26 -266 -106 -333 -166 l-53 -47
-32 29 c-81 73 -227 220 -227 229 0 26 313 195 445 241 44 15 81 28 83 30 2 1
-32 55 -76 121 -110 167 -153 302 -187 582 l-6 54 158 156 c156 153 288 272
428 384 l70 56 9 -29 c8 -28 5 -33 -62 -95z m109 -182 c10 -48 42 -157 71
-241 l52 -153 -18 -72 c-21 -81 -64 -180 -95 -217 l-21 -25 -29 34 c-42 48
-88 147 -111 237 -36 140 -23 277 39 409 27 59 79 130 88 121 3 -2 13 -44 24
-93z m-1026 -467 c-60 -103 -128 -236 -185 -370 l-48 -108 -70 128 c-74 135
-147 292 -139 300 3 3 58 16 123 29 112 23 228 55 319 88 22 8 41 13 43 12 1
-1 -18 -37 -43 -79z m185 -45 c0 -36 49 -209 79 -282 17 -41 49 -98 71 -127
42 -55 48 -72 27 -72 -26 0 -204 -97 -292 -158 -49 -34 -93 -62 -100 -62 -9 0
-68 71 -88 107 -14 23 131 350 239 540 44 78 64 94 64 54z m1063 -73 c20 -35
65 -107 101 -161 36 -53 66 -99 66 -101 0 -11 -85 -14 -139 -5 -72 11 -147 46
-208 96 -43 35 -54 53 -30 53 29 1 108 73 138 125 17 30 32 55 34 55 2 0 19
-28 38 -62z m1567 -268 c0 -18 -7 -20 -70 -20 -60 0 -70 -3 -71 -17 0 -10 -3
-31 -5 -46 -8 -45 11 -59 75 -56 50 3 56 1 56 -17 0 -16 -8 -19 -61 -22 -71
-3 -73 -6 -70 -96 2 -52 1 -56 -21 -56 l-23 0 0 175 0 175 95 0 c88 0 95 -1
95 -20z m791 -157 l57 -173 -26 0 c-23 0 -29 6 -40 42 -19 60 -28 68 -82 68
-54 0 -63 -8 -80 -67 -12 -40 -43 -63 -56 -42 -3 6 20 87 52 180 l58 170 30
-3 c29 -3 30 -6 87 -175z m815 144 c30 -35 31 -68 1 -103 l-23 -26 28 -28 c40
-41 39 -99 -2 -134 -32 -26 -91 -40 -150 -34 l-35 3 -3 179 -2 178 81 -4 c74
-3 83 -6 105 -31z m783 18 c56 -29 64 -104 16 -150 -22 -19 -23 -24 -10 -35
18 -15 57 -142 47 -151 -4 -4 -16 -3 -28 1 -15 6 -24 24 -33 64 -14 61 -37 86
-83 86 l-28 0 0 -75 c0 -73 -1 -75 -25 -75 l-25 0 0 168 c0 93 3 172 7 175 12
13 134 7 162 -8z m679 -162 l2 -173 -25 0 -25 0 0 176 0 175 23 -3 c22 -3 22
-5 25 -175z m830 169 c7 -5 10 -15 7 -23 -4 -12 -20 -14 -70 -11 -63 4 -66 3
-99 -30 -41 -41 -54 -102 -34 -162 20 -59 56 -81 133 -80 45 0 66 -4 69 -13
14 -34 -104 -44 -170 -14 -117 53 -122 253 -8 318 40 23 144 32 172 15z m757
-17 c0 -18 -6 -20 -51 -17 -55 4 -84 -13 -84 -47 0 -23 23 -43 88 -75 61 -31
79 -62 65 -115 -10 -43 -49 -72 -104 -78 -57 -6 -99 10 -99 38 0 18 4 20 23
14 72 -22 110 -17 128 16 20 38 3 67 -57 96 -97 46 -121 108 -64 164 27 28 34
30 92 27 55 -3 63 -5 63 -23z m-5771 -347 c24 -96 91 -238 157 -335 78 -114
246 -277 370 -358 57 -38 107 -71 111 -75 4 -3 -19 -41 -52 -85 -33 -44 -74
-106 -90 -137 l-31 -58 -83 0 c-173 0 -377 28 -600 82 l-128 31 68 36 c138 72
250 217 288 372 32 132 18 247 -69 541 -19 65 -35 121 -35 125 0 4 17 -10 38
-30 30 -29 41 -51 56 -109z m201 -99 c197 -146 512 -288 773 -349 28 -7 52
-16 52 -21 0 -5 -5 -9 -12 -9 -16 0 -199 -123 -227 -154 l-24 -26 -76 42
c-229 125 -447 331 -536 509 -37 73 -37 73 50 8z m-1210 -216 c-19 -51 -35
-147 -35 -215 0 -43 -4 -78 -9 -78 -9 0 -53 29 -164 108 l-78 56 28 22 c52 43
212 121 252 123 8 1 11 -5 6 -16z m526 -22 c64 -65 20 -171 -71 -171 -33 0
-48 6 -71 29 -23 23 -29 38 -29 71 0 33 6 48 29 71 23 23 38 29 71 29 33 0 48
-6 71 -29z m2697 -60 c-5 -14 -105 -92 -208 -163 -129 -89 -289 -179 -423
-240 -111 -50 -113 -50 -187 -44 -121 10 -364 71 -486 122 l-37 16 44 29 c69
47 211 116 295 145 71 23 91 26 230 25 255 -2 515 33 689 92 83 29 88 30 83
18z m-1395 -457 c84 -36 257 -94 279 -94 10 0 18 -4 18 -9 0 -17 -291 -68
-482 -85 -34 -3 -58 -1 -58 5 0 24 152 209 172 209 5 0 37 -12 71 -26z"/>
<path d="M5146 7714 c-30 -30 -13 -74 29 -74 12 0 26 5 33 12 7 7 12 21 12 33
0 42 -44 59 -74 29z"/>
<path d="M4392 6715 c-102 -28 -124 -59 -141 -195 -14 -106 -14 -260 -1 -260
17 0 164 61 210 87 123 71 180 144 180 229 0 41 -5 59 -25 82 -46 55 -140 79
-223 57z"/>
<path d="M4351 6215 c-35 -32 -46 -37 -73 -31 l-31 6 7 -122 c4 -75 12 -127
19 -134 36 -33 238 -94 313 -94 57 0 136 27 176 60 31 26 33 32 32 86 -3 154
-118 252 -310 262 l-91 5 -42 -38z"/>
<path d="M6011 5305 c-120 -34 -192 -92 -240 -195 -23 -49 -26 -67 -26 -165 0
-106 1 -113 36 -185 87 -181 249 -284 469 -297 199 -12 331 59 402 213 19 41
23 66 23 159 0 103 -2 114 -32 175 -62 127 -174 223 -321 277 -86 32 -232 40
-311 18z m369 -394 l72 -38 -79 -37 c-43 -20 -95 -53 -115 -73 l-37 -36 -60
55 c-42 40 -77 62 -118 75 l-58 20 73 38 c40 21 91 55 115 75 l42 37 46 -39
c26 -22 79 -56 119 -77z"/>
<path d="M7538 5301 c-203 -53 -304 -230 -257 -453 34 -161 177 -308 356 -364
67 -21 217 -29 281 -15 124 26 210 92 261 200 23 50 26 68 26 166 0 105 -2
113 -34 179 -49 100 -144 193 -252 244 -132 63 -252 77 -381 43z m368 -392
c35 -18 64 -33 64 -35 0 -1 -33 -18 -72 -38 -40 -19 -92 -51 -116 -71 l-42
-37 -49 49 c-44 44 -68 58 -151 90 -23 9 -21 11 36 42 33 17 84 51 114 75 l55
43 48 -43 c27 -24 78 -58 113 -75z"/>
<path d="M5187 3880 c-10 -33 -18 -63 -20 -66 -3 -8 63 -16 80 -10 8 4 6 22
-10 70 -11 36 -24 66 -27 66 -4 0 -14 -27 -23 -60z"/>
<path d="M5980 3915 c0 -52 1 -55 25 -55 43 0 85 27 85 55 0 35 -26 55 -71 55
l-39 0 0 -55z"/>
<path d="M5978 3759 c-3 -69 2 -75 57 -65 44 9 65 30 65 66 0 37 -32 60 -81
60 l-37 0 -4 -61z"/>
<path d="M6780 3907 l0 -63 43 4 c51 5 77 26 77 62 0 38 -29 60 -78 60 l-42 0
0 -63z"/>
<path d="M3579 2991 c-72 -23 -118 -95 -105 -165 29 -156 266 -150 283 7 11
99 -87 186 -178 158z"/>
<path d="M4771 3013 c-55 -47 -24 -133 48 -133 48 0 75 28 75 77 0 63 -74 96
-123 56z"/>
</g>
</svg>
